<svg width="24" height="24" viewBox="0 0 24 24" fill="none" xmlns="http://www.w3.org/2000/svg">
<path d="M7.28566 8.14342C8.13814 8.14342 8.95571 7.80477 9.55851 7.20197C10.1613 6.59918 10.4999 5.78161 10.4999 4.92913C10.4999 4.07665 10.1613 3.25908 9.55851 2.65629C8.95571 2.05349 8.13814 1.71484 7.28566 1.71484C6.43318 1.71484 5.61561 2.05349 5.01282 2.65629C4.41002 3.25908 4.07138 4.07665 4.07138 4.92913C4.07138 5.78161 4.41002 6.59918 5.01282 7.20197C5.61561 7.80477 6.43318 8.14342 7.28566 8.14342ZM1.71423 11.128C1.71423 10.1894 2.47452 9.42913 3.41309 9.42913H8.21309C7.83744 10.3769 7.83102 11.4311 8.1951 12.3833C8.55918 13.3356 9.26726 14.1166 10.1794 14.572H8.12823C7.62169 14.572 7.12657 14.7225 6.70569 15.0044C6.28481 15.2862 5.95714 15.6868 5.76423 16.1551C4.04566 15.8371 3.01538 14.9791 2.42652 14.0208C1.71423 12.8663 1.71423 11.6731 1.71423 11.4674V11.128ZM13.8197 14.572H15.8725C16.9397 14.572 17.8542 15.226 18.2365 16.1551C19.9551 15.8371 20.9854 14.9791 21.5742 14.0208C22.2857 12.8654 22.2857 11.6723 22.2857 11.4666V11.128C22.2857 10.6774 22.1067 10.2453 21.7881 9.92671C21.4695 9.60812 21.0374 9.42913 20.5868 9.42913H15.7868C16.1625 10.3769 16.1689 11.4311 15.8048 12.3833C15.4407 13.3356 14.7326 14.1166 13.8205 14.572H13.8197ZM19.9285 4.92913C19.9285 5.78161 19.5899 6.59918 18.9871 7.20197C18.3843 7.80477 17.5667 8.14342 16.7142 8.14342C15.8618 8.14342 15.0442 7.80477 14.4414 7.20197C13.8386 6.59918 13.4999 5.78161 13.4999 4.92913C13.4999 4.07665 13.8386 3.25908 14.4414 2.65629C15.0442 2.05349 15.8618 1.71484 16.7142 1.71484C17.5667 1.71484 18.3843 2.05349 18.9871 2.65629C19.5899 3.25908 19.9285 4.07665 19.9285 4.92913ZM6.42852 17.128C6.42852 16.1894 7.18881 15.4291 8.12738 15.4291H15.8725C16.8111 15.4291 17.5714 16.1894 17.5714 17.128V17.4666C17.5714 17.6723 17.5714 18.8654 16.8599 20.0208C16.1142 21.2346 14.6622 22.2863 11.9999 22.2863C9.33766 22.2863 7.88566 21.2337 7.13995 20.0217C6.42852 18.8654 6.42852 17.6731 6.42852 17.4666V17.128ZM11.9999 14.1434C12.8524 14.1434 13.67 13.8048 14.2728 13.202C14.8756 12.5992 15.2142 11.7816 15.2142 10.9291C15.2142 10.0766 14.8756 9.25908 14.2728 8.65629C13.67 8.05349 12.8524 7.71484 11.9999 7.71484C11.1475 7.71484 10.3299 8.05349 9.72711 8.65629C9.12431 9.25908 8.78566 10.0766 8.78566 10.9291C8.78566 11.7816 9.12431 12.5992 9.72711 13.202C10.3299 13.8048 11.1475 14.1434 11.9999 14.1434Z" fill="#39B54A"/>
</svg>
