<svg width="16" height="16" viewBox="0 0 16 16" fill="none" xmlns="http://www.w3.org/2000/svg">
<path d="M4.76469 14.4225V9.82345H12.1176C12.2749 9.82343 12.4294 9.78134 12.565 9.70154C12.7006 9.62174 12.8124 9.50713 12.8888 9.36959C12.9652 9.23205 13.0035 9.07658 12.9996 8.91928C12.9957 8.76199 12.9498 8.6086 12.8667 8.47499L11.3268 5.99995L12.8667 3.52491C12.9499 3.39132 12.9958 3.23791 12.9997 3.0806C13.0036 2.92328 12.9654 2.76778 12.889 2.63022C12.8125 2.49266 12.7007 2.37805 12.5651 2.29826C12.4294 2.21848 12.2749 2.17642 12.1176 2.17646H4.76469V1.88235C4.76469 1.39506 4.36964 1 3.88235 1C3.39506 1 3 1.39506 3 1.88235V14.4225C3 14.8136 3.25122 15.2842 3.86886 15.2842C4.4865 15.2842 4.76469 14.843 4.76469 14.4225Z" fill="#F79E1B"/>
</svg>
