<svg width="24" height="24" viewBox="0 0 24 24" fill="none" xmlns="http://www.w3.org/2000/svg">
<g clip-path="url(#clip0_958_4216)">
<path d="M23 12C23 18.0751 18.0751 23 12 23C5.92487 23 1 18.0751 1 12C1 5.92487 5.92487 1 12 1C18.0751 1 23 5.92487 23 12Z" stroke="#39B54A" stroke-width="2"/>
<path d="M14.7467 12.8256C16.0837 11.9355 16.9655 10.4165 16.9655 8.69013C16.9655 5.94792 14.7422 3.72461 12 3.72461C9.25778 3.72461 7.03447 5.94792 7.03447 8.69013C7.03447 10.4165 7.91626 11.9355 9.25322 12.8256C9.25322 12.8256 9.25364 12.826 9.25405 12.826C9.25364 12.826 9.25364 12.8256 9.25364 12.8256C6.05336 13.7901 3.5615 16.3875 2.75916 19.6552L2.75957 19.6556C2.89033 19.8133 3.02605 19.9672 3.16467 20.1183C3.19819 20.1551 3.23336 20.1903 3.26771 20.2263C3.37447 20.3396 3.48247 20.4514 3.59336 20.5606C3.63929 20.6057 3.68605 20.6492 3.73281 20.6934C3.83543 20.7911 3.93929 20.8875 4.04522 20.9814C4.09778 21.0278 4.15116 21.0737 4.20412 21.1192C4.30798 21.2082 4.41309 21.2955 4.52026 21.3807C4.57653 21.4259 4.63322 21.4701 4.68991 21.5144C4.79833 21.598 4.9084 21.6791 5.01971 21.7585C5.07722 21.7995 5.13391 21.8413 5.19226 21.8814C5.30978 21.9625 5.42936 22.0403 5.54978 22.1173C5.60398 22.1516 5.65695 22.1872 5.71157 22.2212C5.8506 22.3068 5.99212 22.3888 6.13488 22.469C6.17253 22.4901 6.20936 22.5129 6.24743 22.5336C6.43198 22.6345 6.61943 22.7314 6.80978 22.8228C6.81433 22.8249 6.81929 22.827 6.82384 22.829C7.0055 22.9159 7.19005 22.9983 7.37667 23.0761C7.4346 23.1005 7.49378 23.122 7.55212 23.1452C7.68702 23.199 7.82191 23.2519 7.95929 23.3007C8.03212 23.3268 8.10578 23.3504 8.17902 23.3752C8.30398 23.4174 8.42978 23.4584 8.5564 23.4961C8.63667 23.5201 8.71736 23.5424 8.79847 23.5647C8.92095 23.5987 9.04426 23.631 9.16881 23.6612C9.25281 23.6814 9.33722 23.7009 9.42205 23.7195C9.5466 23.7468 9.67157 23.7716 9.79736 23.7948C9.8826 23.8105 9.96743 23.8267 10.0535 23.8403C10.1834 23.8614 10.3142 23.8792 10.4454 23.8962C10.5281 23.907 10.6105 23.919 10.6936 23.9276C10.8385 23.9434 10.9845 23.9545 11.1306 23.9649C11.2014 23.9699 11.2713 23.9773 11.3421 23.981C11.5601 23.9934 11.779 24.0005 12 24.0005C12.2209 24.0005 12.4398 23.9934 12.6579 23.9819C12.7287 23.9781 12.799 23.9707 12.8694 23.9657C13.0158 23.9554 13.1619 23.9442 13.3063 23.9285C13.3895 23.9194 13.4718 23.9078 13.5546 23.897C13.6858 23.8801 13.8165 23.8623 13.9465 23.8412C14.0321 23.8271 14.1174 23.8114 14.2026 23.7956C14.3284 23.7725 14.4538 23.7476 14.5779 23.7203C14.6627 23.7017 14.7472 23.6823 14.8312 23.662C14.9553 23.6318 15.0786 23.5995 15.2015 23.5656C15.2822 23.5432 15.3633 23.5209 15.4436 23.4969C15.5706 23.4588 15.696 23.4179 15.8209 23.3761C15.8942 23.3512 15.9683 23.3276 16.0407 23.3016C16.1776 23.2523 16.3129 23.1998 16.4478 23.146C16.5062 23.1228 16.5654 23.1009 16.6233 23.0769C16.8091 22.9991 16.9928 22.9176 17.1736 22.8307C17.179 22.8282 17.1848 22.8257 17.1902 22.8232C17.3805 22.7318 17.568 22.635 17.7525 22.534C17.7906 22.5133 17.8274 22.4905 17.8651 22.4694C18.0078 22.3892 18.1494 22.3072 18.2884 22.2216C18.343 22.1881 18.3964 22.1525 18.4502 22.1177C18.5706 22.0407 18.6902 21.9625 18.8077 21.8819C18.8656 21.8417 18.9227 21.8003 18.9803 21.759C19.0916 21.6791 19.2016 21.598 19.3101 21.5148C19.3672 21.471 19.4234 21.4263 19.4797 21.3812C19.5865 21.2959 19.692 21.2086 19.7958 21.1196C19.8492 21.0741 19.9026 21.0282 19.9547 20.9819C20.0607 20.8879 20.1645 20.7915 20.2672 20.6939C20.3135 20.6496 20.3607 20.6057 20.4066 20.561C20.5175 20.4518 20.6259 20.3401 20.7323 20.2267C20.7662 20.1903 20.8014 20.1551 20.8353 20.1187C20.9739 19.9676 21.1096 19.8137 21.2404 19.6561L21.2408 19.6556C20.4389 16.3875 17.947 13.7901 14.7467 12.8256Z" fill="#39B54A"/>
</g>
<defs>
<clipPath id="clip0_958_4216">
<rect width="24" height="24" fill="white"/>
</clipPath>
</defs>
</svg>
